<?xml version="1.0" standalone="no"?>
<!DOCTYPE svg PUBLIC "-//W3C//DTD SVG 20010904//EN"
 "http://www.w3.org/TR/2001/REC-SVG-20010904/DTD/svg10.dtd">
<svg version="1.0" xmlns="http://www.w3.org/2000/svg"
 width="361.000000pt" height="97.000000pt" viewBox="0 0 361.000000 97.000000"
 preserveAspectRatio="xMidYMid meet">

<g transform="translate(0.000000,97.000000) scale(0.100000,-0.100000)"
fill="#000000" stroke="none">
<path d="M0 485 l0 -485 1805 0 1805 0 0 485 0 485 -1805 0 -1805 0 0 -485z
m437 449 c26 -9 63 -25 80 -36 l33 -20 -27 -36 c-15 -20 -28 -39 -29 -41 -2
-1 -29 10 -60 25 -97 47 -204 33 -204 -27 0 -31 28 -47 102 -59 109 -17 164
-38 192 -71 59 -70 38 -171 -48 -224 -45 -27 -57 -30 -136 -30 -80 0 -93 3
-156 35 -38 19 -70 42 -71 50 -2 8 10 30 25 49 l28 33 48 -33 c39 -28 57 -34
115 -37 60 -4 71 -1 96 20 22 19 27 30 22 50 -8 30 -36 43 -127 58 -89 15
-146 37 -170 67 -61 78 -19 194 85 231 45 16 148 14 202 -4z m313 -64 l0 -60
55 0 55 0 0 -45 0 -45 -55 0 -55 0 0 -94 c0 -113 11 -132 72 -122 l38 6 0 -44
0 -45 -46 -7 c-59 -8 -117 9 -143 43 -19 23 -21 40 -21 144 l0 119 -40 0 -40
0 0 45 0 45 40 0 40 0 0 50 c0 47 1 50 33 59 65 19 67 17 67 -49z m980 0 l0
-60 55 0 55 0 0 -45 0 -45 -55 0 -55 0 0 -100 c0 -91 2 -100 21 -111 12 -6 36
-8 55 -4 l34 6 0 -41 c0 -48 -11 -55 -90 -55 -65 1 -104 23 -119 67 -6 17 -11
78 -11 134 l0 104 -40 0 -40 0 0 45 0 45 40 0 40 0 0 50 c0 46 2 50 28 56 15
3 32 7 37 9 39 13 45 6 45 -55z m-592 -103 c3 -46 2 -47 -22 -41 -33 8 -94
-13 -106 -36 -6 -10 -10 -75 -10 -144 l0 -126 -55 0 -55 0 0 195 0 195 55 0
c42 0 55 -4 55 -15 0 -12 6 -11 33 5 20 13 45 19 67 18 34 -3 35 -4 38 -51z
m274 43 c20 -6 50 -26 67 -46 l31 -35 0 -154 0 -155 -49 0 c-27 0 -51 5 -53
10 -2 7 -16 5 -40 -5 -99 -41 -209 13 -210 104 -1 85 60 126 179 119 67 -5 73
-3 73 14 0 68 -73 85 -185 41 -9 -3 -22 11 -34 35 l-21 41 48 15 c89 28 135
32 194 16z m690 0 c78 -22 137 -102 138 -187 l0 -43 -140 0 c-77 0 -140 -3
-140 -6 0 -17 24 -46 50 -59 37 -19 73 -19 112 1 30 16 31 15 62 -16 l31 -31
-23 -19 c-56 -46 -154 -52 -231 -14 -70 35 -103 86 -109 164 -7 99 41 172 137
206 44 16 66 17 113 4z m421 -4 c27 -8 47 -10 47 -4 0 5 24 8 53 6 l52 -3 0
-215 c0 -204 -1 -217 -22 -252 l-22 -38 49 0 c47 0 50 2 50 25 0 21 5 25 30
25 33 0 80 38 80 63 0 8 -31 96 -70 196 -38 100 -70 186 -70 191 0 6 24 10 54
10 l55 0 19 -52 c11 -29 32 -88 47 -131 l28 -79 55 131 55 131 218 0 219 0 0
-39 c0 -35 -10 -51 -90 -144 -49 -58 -90 -108 -90 -111 0 -3 43 -6 95 -6 l95
0 0 -45 0 -45 -170 0 -170 0 0 34 c0 29 15 53 96 148 l95 113 -93 5 c-93 5
-93 5 -98 33 -4 24 -22 -11 -99 -192 -52 -122 -100 -226 -108 -232 -7 -6 -13
-15 -13 -20 0 -5 114 -10 253 -10 l252 -2 -275 -14 c-151 -7 -354 -15 -450
-18 -96 -2 -679 -25 -1294 -49 -616 -25 -1123 -43 -1127 -41 -3 3 -9 22 -13
42 -3 21 -9 48 -12 60 l-6 23 1046 0 1046 0 15 36 c13 31 18 35 37 29 13 -4
53 -9 89 -12 59 -5 70 -2 88 16 12 12 21 34 21 50 0 29 0 30 -27 15 -16 -7
-52 -14 -82 -14 -111 0 -191 82 -191 196 0 94 45 157 136 189 50 18 61 18 117
1z m80 -621 c3 -7 -2 -24 -12 -37 l-19 -23 3 35 c3 42 3 40 14 40 5 0 11 -7
14 -15z m-303 -49 c0 -52 1 -55 27 -58 48 -6 39 -28 -11 -28 l-46 0 0 70 c0
56 3 70 15 70 11 0 15 -13 15 -54z m577 39 c8 -23 -2 -28 -27 -15 -16 9 -25 9
-36 -1 -17 -14 -19 -60 -2 -77 16 -16 23 -15 42 4 21 21 39 9 26 -17 -7 -13
-21 -19 -43 -19 -40 0 -53 9 -66 43 -11 29 0 75 22 89 22 14 77 9 84 -7z
m-335 -15 c19 -17 19 -20 5 -26 -19 -7 -24 -66 -6 -62 6 2 14 -3 16 -9 7 -20
-45 -16 -55 5 -17 32 -22 84 -11 98 15 19 26 18 51 -6z m708 10 c0 -5 7 -10
15 -10 8 0 15 -7 15 -15 0 -8 -7 -15 -15 -15 -10 0 -15 -10 -15 -30 0 -20 5
-30 15 -30 8 0 15 -5 15 -11 0 -6 -12 -9 -27 -7 -24 3 -28 8 -31 41 -2 20 -7
37 -13 37 -24 0 4 49 29 50 6 0 12 -4 12 -10z m-787 -31 c17 -26 1 -49 -33
-49 -19 0 -29 -4 -25 -11 4 -6 19 -7 37 -4 23 6 29 4 26 -6 -7 -22 -70 -24
-85 -3 -18 24 -16 54 4 76 20 22 61 20 76 -3z m235 4 c2 -8 -7 -13 -25 -13
l-28 -1 28 -15 c20 -11 27 -22 25 -37 -2 -18 -10 -22 -37 -22 -20 0 -36 6 -39
14 -3 10 2 12 22 7 14 -3 26 -2 26 3 0 5 -9 11 -20 14 -26 7 -36 33 -19 53 14
17 60 15 67 -3z m272 0 c0 -7 -7 -13 -15 -13 -11 0 -15 -11 -15 -40 0 -29 -4
-40 -15 -40 -11 0 -15 13 -15 53 0 53 0 54 30 54 18 0 30 -6 30 -14z m98 5 c7
-7 12 -22 12 -35 0 -19 -5 -23 -31 -23 -18 0 -28 -4 -24 -10 3 -6 18 -7 32 -4
19 5 24 3 21 -7 -11 -34 -85 -21 -94 16 -13 52 49 98 84 63z m110 -5 c5 -10
12 -34 15 -54 l5 -37 -46 2 c-40 1 -47 4 -50 23 -3 17 5 26 30 37 30 14 31 15
8 15 -40 -2 -43 0 -30 16 17 20 57 19 68 -2z m205 -4 c17 -26 1 -49 -33 -49
-19 0 -29 -4 -25 -11 4 -6 19 -7 37 -4 23 6 29 4 26 -6 -7 -22 -70 -24 -85 -3
-18 24 -16 54 4 76 20 22 61 20 76 -3z"/>
<path d="M1278 569 c-24 -13 -23 -56 1 -69 25 -13 72 -13 105 0 20 7 26 17 26
39 0 17 -6 31 -16 35 -25 9 -97 6 -116 -5z"/>
<path d="M2005 718 c-25 -14 -44 -39 -45 -55 0 -10 24 -13 90 -13 50 0 90 4
90 9 0 6 -10 22 -22 36 -26 30 -83 41 -113 23z"/>
<path d="M2465 723 c-59 -11 -95 -54 -95 -114 0 -22 10 -41 34 -65 28 -28 41
-34 78 -34 24 0 54 7 66 16 20 13 22 24 22 93 0 66 -3 80 -17 86 -37 15 -69
21 -88 18z"/>
<path d="M2418 123 c7 -3 16 -2 19 1 4 3 -2 6 -13 5 -11 0 -14 -3 -6 -6z"/>
<path d="M3028 123 c7 -3 16 -2 19 1 4 3 -2 6 -13 5 -11 0 -14 -3 -6 -6z"/>
<path d="M3135 89 c-4 -6 -5 -13 -2 -16 7 -7 27 6 27 18 0 12 -17 12 -25 -2z"/>
<path d="M3338 123 c7 -3 16 -2 19 1 4 3 -2 6 -13 5 -11 0 -14 -3 -6 -6z"/>
</g>
</svg>
